<svg width="24" height="19" viewBox="0 0 24 19" fill="none" xmlns="http://www.w3.org/2000/svg">
<path d="M11.8934 0C12.9103 0 13.9533 0.0261251 14.9643 0.0688752L16.1584 0.125875L17.3013 0.193563L18.3717 0.266L19.3494 0.342001C20.4103 0.42308 21.4087 0.875126 22.1687 1.61861C22.9288 2.3621 23.402 3.3494 23.5049 4.40682L23.5525 4.91151L23.6417 5.99213C23.725 7.11195 23.7868 8.3327 23.7868 9.50001C23.7868 10.6673 23.725 11.8881 23.6417 13.0079L23.5525 14.0885C23.537 14.2619 23.5216 14.4293 23.5049 14.5932C23.4019 15.6508 22.9286 16.6383 22.1683 17.3818C21.408 18.1253 20.4093 18.5772 19.3482 18.658L18.3729 18.7328L17.3025 18.8065L16.1584 18.8742L14.9643 18.9312C13.9412 18.9755 12.9174 18.9985 11.8934 19C10.8694 18.9985 9.84555 18.9755 8.82252 18.9312L7.62843 18.8742L6.48547 18.8065L5.41506 18.7328L4.43743 18.658C3.37648 18.5769 2.37815 18.1249 1.61806 17.3814C0.857982 16.6379 0.38484 15.6506 0.281874 14.5932L0.2343 14.0885L0.145099 13.0079C0.0541596 11.8407 0.00576119 10.6707 0 9.50001C0 8.3327 0.0618456 7.11195 0.145099 5.99213L0.2343 4.91151C0.249761 4.73813 0.265223 4.57069 0.281874 4.40682C0.3848 3.34958 0.857772 2.36243 1.61761 1.61897C2.37745 0.875511 3.3755 0.423347 4.43624 0.342001L5.41269 0.266L6.48309 0.193563L7.62724 0.125875L8.82133 0.0688752C9.84476 0.0245017 10.869 0.00153815 11.8934 0ZM11.8934 2.375C10.9122 2.375 9.90244 2.40113 8.92005 2.4415L7.75688 2.49732L6.64008 2.56263L5.59109 2.63388L4.6301 2.70869C4.12502 2.74447 3.64895 2.95765 3.28626 3.31043C2.92357 3.66321 2.69769 4.13282 2.64866 4.63601C2.50951 6.0717 2.37868 7.85889 2.37868 9.50001C2.37868 11.1411 2.50951 12.9283 2.64866 14.364C2.74975 15.3995 3.57278 16.2046 4.6301 16.2913L5.59109 16.365L6.64008 16.4362L7.75688 16.5027L8.92005 16.5585C9.90244 16.5989 10.9122 16.625 11.8934 16.625C12.8746 16.625 13.8844 16.5989 14.8667 16.5585L16.0299 16.5027L17.1467 16.4374L18.1957 16.3661L19.1567 16.2913C19.6618 16.2556 20.1379 16.0424 20.5005 15.6896C20.8632 15.3368 21.0891 14.8672 21.1381 14.364C21.2773 12.9283 21.4081 11.1411 21.4081 9.50001C21.4081 7.85889 21.2773 6.0717 21.1381 4.63601C21.0891 4.13282 20.8632 3.66321 20.5005 3.31043C20.1379 2.95765 19.6618 2.74447 19.1567 2.70869L18.1957 2.63507L17.1467 2.56382L16.0299 2.49732L14.8667 2.4415C13.8762 2.39895 12.8849 2.37678 11.8934 2.375ZM9.51472 6.62032C9.51464 6.50426 9.54296 6.38994 9.59722 6.28729C9.65148 6.18465 9.73002 6.09679 9.82603 6.03136C9.92204 5.96593 10.0326 5.92491 10.1481 5.91187C10.2636 5.89882 10.3806 5.91415 10.4888 5.95651L10.5851 6.00401L15.5804 8.88251C15.6798 8.93982 15.764 9.02025 15.8257 9.11697C15.8873 9.21369 15.9247 9.32385 15.9347 9.43808C15.9446 9.55232 15.9267 9.66726 15.8827 9.77314C15.8386 9.87902 15.7696 9.97272 15.6814 10.0463L15.5804 10.1175L10.5851 12.9972C10.4845 13.0554 10.3711 13.0882 10.2548 13.0926C10.1386 13.097 10.023 13.0731 9.91821 13.0227C9.81338 12.9724 9.72247 12.8972 9.65339 12.8038C9.58431 12.7103 9.53915 12.6014 9.52186 12.4866L9.51472 12.3797V6.62032Z" fill="white"/>
</svg>
