<svg width="60" height="60" viewBox="0 0 60 60" fill="none" xmlns="http://www.w3.org/2000/svg">
<path d="M23.175 6.43799C20.127 8.70599 19.308 12.297 19.458 14.208C19.65 16.545 20.124 19.587 20.124 19.587C20.124 19.587 19.185 20.097 19.185 22.149C19.512 27.3 21.234 25.077 21.588 27.336C22.44 32.778 24.387 31.809 24.387 34.779C24.387 39.726 22.347 42.039 15.978 44.781C9.588 47.535 3 51 3 57V60H57V57C57 51 50.409 47.535 44.016 44.784C37.647 42.042 35.613 39.732 35.613 34.782C35.613 31.812 37.554 32.781 38.409 27.339C38.766 25.08 40.485 27.303 40.818 22.152C40.818 20.1 39.876 19.59 39.876 19.59C39.876 19.59 40.35 16.548 40.539 14.211C40.734 11.76 39.345 6.528 33.639 4.923C32.64 3.903 31.965 2.28 35.037 0.650995C28.317 0.335995 26.754 3.85199 23.175 6.43799Z" fill="#D9D9D9"/>
</svg>
