<svg width="20" height="20" viewBox="0 0 20 20" fill="none" xmlns="http://www.w3.org/2000/svg">
<path fill-rule="evenodd" clip-rule="evenodd" d="M1.25 10C1.25 12.3206 2.17187 14.5462 3.81282 16.1872C5.45376 17.8281 7.67936 18.75 10 18.75C12.3206 18.75 14.5462 17.8281 16.1872 16.1872C17.8281 14.5462 18.75 12.3206 18.75 10C18.75 7.67936 17.8281 5.45376 16.1872 3.81282C14.5462 2.17187 12.3206 1.25 10 1.25C7.67936 1.25 5.45376 2.17187 3.81282 3.81282C2.17187 5.45376 1.25 7.67936 1.25 10ZM17.25 10C17.25 11.9228 16.4862 13.7669 15.1265 15.1265C13.7669 16.4862 11.9228 17.25 10 17.25C8.07718 17.25 6.23311 16.4862 4.87348 15.1265C3.51384 13.7669 2.75 11.9228 2.75 10C2.75 8.07718 3.51384 6.23311 4.87348 4.87348C6.23311 3.51384 8.07718 2.75 10 2.75C11.9228 2.75 13.7669 3.51384 15.1265 4.87348C16.4862 6.23311 17.25 8.07718 17.25 10Z" fill="white"/>
<path fill-rule="evenodd" clip-rule="evenodd" d="M6.25 10C6.25 14.522 7.741 18.25 10 18.25C12.259 18.25 13.75 14.522 13.75 10C13.75 5.478 12.259 1.75 10 1.75C7.741 1.75 6.25 5.478 6.25 10ZM12.25 10C12.25 13.762 11.055 16.75 10 16.75C8.945 16.75 7.75 13.762 7.75 10C7.75 6.238 8.945 3.25 10 3.25C11.055 3.25 12.25 6.238 12.25 10Z" fill="white"/>
<path d="M3.602 5.46701L4.608 4.35501C4.708 4.44501 4.817 4.53501 4.933 4.62201C6.204 5.57401 8.233 6.16201 10.448 6.16201C12.339 6.16201 14.101 5.73501 15.379 5.00401C15.687 4.82801 15.961 4.63701 16.198 4.43401L17.172 5.57501C16.8466 5.85102 16.4957 6.09545 16.124 6.30501C14.608 7.17301 12.59 7.66101 10.448 7.66101C7.926 7.66101 5.583 6.98301 4.033 5.82201C3.88396 5.71036 3.74014 5.5919 3.602 5.46701ZM3.602 14.549L4.608 15.661C4.708 15.57 4.817 15.481 4.933 15.394C6.204 14.442 8.233 13.854 10.448 13.854C12.339 13.854 14.101 14.281 15.379 15.012C15.687 15.188 15.961 15.379 16.198 15.582L17.172 14.441C16.8462 14.1655 16.4953 13.9211 16.124 13.711C14.608 12.843 12.59 12.355 10.448 12.355C7.926 12.355 5.583 13.033 4.033 14.194C3.88396 14.3057 3.74014 14.4241 3.602 14.549ZM1.75 10.75V9.25001H18.25V10.75H1.75Z" fill="white"/>
</svg>
