<svg width="40" height="40" viewBox="0 0 40 40" fill="none" xmlns="http://www.w3.org/2000/svg">
<path d="M23.3334 18.3334V13.3334C23.3334 12.3334 24.0001 11.6667 25.0001 11.6667H30.0001C30.4421 11.6667 30.866 11.8423 31.1786 12.1548C31.4912 12.4674 31.6667 12.8913 31.6667 13.3334V18.3334C31.6667 19.3334 31.0001 20 30.0001 20H25.0001C24.0001 20 23.3334 19.3334 23.3334 18.3334ZM23.3334 18.3334V21.6667C23.3334 23.4348 24.0358 25.1305 25.286 26.3807C26.5363 27.631 28.232 28.3334 30.0001 28.3334H31.6667M8.33341 18.3334V13.3334C8.33341 12.3334 9.00008 11.6667 10.0001 11.6667H15.0001C15.4421 11.6667 15.866 11.8423 16.1786 12.1548C16.4912 12.4674 16.6667 12.8913 16.6667 13.3334V18.3334C16.6667 19.3334 16.0001 20 15.0001 20H10.0001C9.00008 20 8.33341 19.3334 8.33341 18.3334ZM8.33341 18.3334V21.6667C8.33341 23.4348 9.03579 25.1305 10.286 26.3807C11.5363 27.631 13.232 28.3334 15.0001 28.3334H16.6667" stroke="#D9D9D9" stroke-width="2" stroke-linecap="round" stroke-linejoin="round"/>
</svg>
