<svg width="14" height="19" viewBox="0 0 14 19" fill="none" xmlns="http://www.w3.org/2000/svg">
<path d="M7.74921 0.307087C7.55181 0.110166 7.28428 -0.000291008 7.00545 6.96353e-06C6.72662 0.000304935 6.45933 0.111333 6.26235 0.308676L0.320189 6.26355C0.219861 6.36065 0.139877 6.47677 0.0849044 6.60512C0.0299318 6.73347 0.0010714 6.87148 7.33113e-06 7.01111C-0.00105674 7.15073 0.0256971 7.28917 0.0787071 7.41834C0.131717 7.54751 0.209922 7.66483 0.308759 7.76346C0.407595 7.86208 0.525084 7.94004 0.65437 7.99277C0.783656 8.04551 0.92215 8.07196 1.06177 8.0706C1.20139 8.06924 1.33934 8.04008 1.46757 7.98484C1.59581 7.92959 1.71175 7.84936 1.80864 7.74882L5.95775 3.59083L5.97264 17.5163C5.97293 17.7951 6.08401 18.0625 6.28142 18.2595C6.47883 18.4565 6.74641 18.567 7.02529 18.5667C7.30417 18.5664 7.57152 18.4553 7.76851 18.2579C7.9655 18.0605 8.076 17.7929 8.0757 17.514L8.06082 3.58859L12.2188 7.7377C12.4173 7.92903 12.6831 8.03473 12.9588 8.03204C13.2345 8.02935 13.4981 7.91848 13.6928 7.72331C13.8876 7.52814 13.9979 7.26429 14 6.98858C14.0021 6.71286 13.8958 6.44736 13.7041 6.24924L7.74921 0.307087Z" fill="white"/>
</svg>
