<svg width="36" height="36" viewBox="0 0 36 36" fill="none" xmlns="http://www.w3.org/2000/svg">
<rect width="36" height="36" rx="18" fill="#119BFF" fill-opacity="0.1"/>
<path fill-rule="evenodd" clip-rule="evenodd" d="M7.5 18C7.5 20.7848 8.60625 23.4555 10.5754 25.4246C12.5445 27.3938 15.2152 28.5 18 28.5C20.7848 28.5 23.4555 27.3938 25.4246 25.4246C27.3938 23.4555 28.5 20.7848 28.5 18C28.5 15.2152 27.3938 12.5445 25.4246 10.5754C23.4555 8.60625 20.7848 7.5 18 7.5C15.2152 7.5 12.5445 8.60625 10.5754 10.5754C8.60625 12.5445 7.5 15.2152 7.5 18ZM26.7 18C26.7 20.3074 25.7834 22.5203 24.1518 24.1518C22.5203 25.7834 20.3074 26.7 18 26.7C15.6926 26.7 13.4797 25.7834 11.8482 24.1518C10.2166 22.5203 9.3 20.3074 9.3 18C9.3 15.6926 10.2166 13.4797 11.8482 11.8482C13.4797 10.2166 15.6926 9.3 18 9.3C20.3074 9.3 22.5203 10.2166 24.1518 11.8482C25.7834 13.4797 26.7 15.6926 26.7 18Z" fill="#119BFF"/>
<path fill-rule="evenodd" clip-rule="evenodd" d="M13.5 18C13.5 23.4264 15.2892 27.9 18 27.9C20.7108 27.9 22.5 23.4264 22.5 18C22.5 12.5736 20.7108 8.1 18 8.1C15.2892 8.1 13.5 12.5736 13.5 18ZM20.7 18C20.7 22.5144 19.266 26.1 18 26.1C16.734 26.1 15.3 22.5144 15.3 18C15.3 13.4856 16.734 9.9 18 9.9C19.266 9.9 20.7 13.4856 20.7 18Z" fill="#119BFF"/>
<path d="M10.3225 12.5604L11.5297 11.226C11.6497 11.334 11.7805 11.442 11.9197 11.5464C13.4449 12.6888 15.8797 13.3944 18.5377 13.3944C20.8069 13.3944 22.9213 12.882 24.4549 12.0048C24.8245 11.7936 25.1533 11.5644 25.4377 11.3208L26.6065 12.69C26.216 13.0212 25.7949 13.3145 25.3489 13.566C23.5297 14.6076 21.1081 15.1932 18.5377 15.1932C15.5113 15.1932 12.6997 14.3796 10.8397 12.9864C10.6608 12.8524 10.4883 12.7103 10.3225 12.5604ZM10.3225 23.4588L11.5297 24.7932C11.6497 24.684 11.7805 24.5772 11.9197 24.4728C13.4449 23.3304 15.8797 22.6248 18.5377 22.6248C20.8069 22.6248 22.9213 23.1372 24.4549 24.0144C24.8245 24.2256 25.1533 24.4548 25.4377 24.6984L26.6065 23.3292C26.2155 22.9986 25.7945 22.7053 25.3489 22.4532C23.5297 21.4116 21.1081 20.826 18.5377 20.826C15.5113 20.826 12.6997 21.6396 10.8397 23.0328C10.6608 23.1668 10.4883 23.3089 10.3225 23.4588ZM8.1001 18.9V17.1H27.9001V18.9H8.1001Z" fill="#119BFF"/>
</svg>
