<svg width="90" height="20" viewBox="0 0 90 20" fill="none" xmlns="http://www.w3.org/2000/svg">
<path d="M1.66663 15.8334V10.8334C1.66663 10.4584 1.74301 10.1181 1.89579 9.81252C2.04857 9.50696 2.24996 9.23613 2.49996 9.00002V6.66669C2.49996 5.97224 2.74301 5.38196 3.22913 4.89585C3.71524 4.40974 4.30551 4.16669 4.99996 4.16669H8.33329C8.65274 4.16669 8.95135 4.22585 9.22913 4.34419C9.5069 4.46252 9.76385 4.62558 9.99996 4.83335C10.2361 4.62502 10.493 4.46196 10.7708 4.34419C11.0486 4.22641 11.3472 4.16724 11.6666 4.16669H15C15.6944 4.16669 16.2847 4.40974 16.7708 4.89585C17.2569 5.38196 17.5 5.97224 17.5 6.66669V9.00002C17.75 9.23613 17.9513 9.50696 18.1041 9.81252C18.2569 10.1181 18.3333 10.4584 18.3333 10.8334V15.8334H16.6666V14.1667H3.33329V15.8334H1.66663ZM10.8333 8.33335H15.8333V6.66669C15.8333 6.43058 15.7533 6.2328 15.5933 6.07335C15.4333 5.91391 15.2355 5.83391 15 5.83335H11.6666C11.4305 5.83335 11.2327 5.91335 11.0733 6.07335C10.9138 6.23335 10.8338 6.43113 10.8333 6.66669V8.33335ZM4.16663 8.33335H9.16663V6.66669C9.16663 6.43058 9.08663 6.2328 8.92663 6.07335C8.76663 5.91391 8.56885 5.83391 8.33329 5.83335H4.99996C4.76385 5.83335 4.56607 5.91335 4.40663 6.07335C4.24718 6.23335 4.16718 6.43113 4.16663 6.66669V8.33335Z" fill="black" fill-opacity="0.5"/>
<path d="M52.5 15.8333H54.1667V17.5H35.8334V15.8333H37.5V3.33333C37.5 3.11232 37.5878 2.90036 37.7441 2.74408C37.9004 2.5878 38.1124 2.5 38.3334 2.5H46.6667C46.8877 2.5 47.0997 2.5878 47.256 2.74408C47.4122 2.90036 47.5 3.11232 47.5 3.33333V15.8333H49.1667V7.5H51.6667C51.8877 7.5 52.0997 7.5878 52.256 7.74408C52.4122 7.90036 52.5 8.11232 52.5 8.33333V15.8333ZM40.8334 9.16667V10.8333H44.1667V9.16667H40.8334ZM40.8334 5.83333V7.5H44.1667V5.83333H40.8334Z" fill="black" fill-opacity="0.5"/>
<path d="M87.5 10L81.6667 4.16669V7.50002C75.8333 8.33335 73.3333 12.5 72.5 16.6667C74.5833 13.75 77.5 12.4167 81.6667 12.4167V15.8334L87.5 10Z" fill="black" fill-opacity="0.5"/>
</svg>
