<svg width="12" height="6" viewBox="0 0 12 6" fill="none" xmlns="http://www.w3.org/2000/svg">
<path d="M11.7625 1.18894L6.44327 5.84792C6.37995 5.90322 6.31135 5.94248 6.23747 5.96571C6.16359 5.98893 6.08443 6.00036 6 5.99999C5.91557 5.99999 5.83641 5.98838 5.76253 5.96515C5.68865 5.94193 5.62005 5.90285 5.55673 5.84792L0.221636 1.18894C0.0738783 1.05991 -2.59465e-07 0.898616 -2.69309e-07 0.705068C-2.79154e-07 0.511519 0.0791554 0.345622 0.237467 0.207373C0.395778 0.0691242 0.580475 -2.18063e-08 0.791556 -2.97358e-08C1.00264 -3.76654e-08 1.18733 0.0691242 1.34565 0.207373L6 4.27188L10.6544 0.207372C10.8021 0.0783401 10.9843 0.0138241 11.2008 0.013824C11.4174 0.013824 11.6046 0.0829482 11.7625 0.221197C11.9208 0.359446 12 0.520736 12 0.705067C12 0.889399 11.9208 1.05069 11.7625 1.18894Z" fill="white"/>
</svg>
