<svg width="20" height="20" viewBox="0 0 20 20" fill="none" xmlns="http://www.w3.org/2000/svg">
<path d="M15.2734 18.75C14.5109 18.75 13.4398 18.4742 11.8359 17.5781C9.8855 16.4844 8.3769 15.4746 6.43706 13.5398C4.56674 11.6707 3.65659 10.4606 2.38276 8.14258C0.943698 5.52539 1.18901 4.15352 1.46323 3.56719C1.78979 2.86641 2.27182 2.44727 2.89487 2.03125C3.24876 1.79939 3.62326 1.60064 4.01362 1.4375C4.05268 1.42071 4.08901 1.40469 4.12143 1.39024C4.31479 1.30313 4.60776 1.17149 4.97885 1.31211C5.22651 1.40508 5.44761 1.59532 5.7937 1.93711C6.50346 2.63711 7.47339 4.1961 7.8312 4.96172C8.07143 5.47774 8.23042 5.81836 8.23081 6.20039C8.23081 6.64766 8.00581 6.99258 7.73276 7.36485C7.68159 7.43477 7.63081 7.50157 7.58159 7.56641C7.28432 7.95704 7.21909 8.06993 7.26206 8.27149C7.34917 8.67657 7.99878 9.88243 9.06636 10.9477C10.1339 12.0129 11.305 12.6215 11.7117 12.7082C11.9218 12.7531 12.0371 12.6852 12.4402 12.3773C12.498 12.3332 12.5574 12.2875 12.6195 12.2418C13.0359 11.932 13.3648 11.7129 13.8015 11.7129H13.8039C14.1839 11.7129 14.5093 11.8777 15.0484 12.1496C15.7515 12.5043 17.3574 13.4617 18.0617 14.1723C18.4042 14.5176 18.5953 14.7379 18.6886 14.9852C18.8292 15.3574 18.6968 15.6492 18.6105 15.8445C18.596 15.877 18.58 15.9125 18.5632 15.952C18.3988 16.3416 18.1989 16.7153 17.966 17.0684C17.5507 17.6895 17.13 18.1703 16.4277 18.4973C16.067 18.6679 15.6723 18.7543 15.2734 18.75Z" fill="white"/>
</svg>
