<svg width="20" height="20" viewBox="0 0 20 20" fill="none" xmlns="http://www.w3.org/2000/svg">
<path d="M15.8333 3.33334H4.16663C3.50358 3.33334 2.8677 3.59674 2.39886 4.06558C1.93002 4.53442 1.66663 5.1703 1.66663 5.83334V14.1667C1.66663 14.8297 1.93002 15.4656 2.39886 15.9344C2.8677 16.4033 3.50358 16.6667 4.16663 16.6667H15.8333C16.4963 16.6667 17.1322 16.4033 17.6011 15.9344C18.0699 15.4656 18.3333 14.8297 18.3333 14.1667V5.83334C18.3333 5.1703 18.0699 4.53442 17.6011 4.06558C17.1322 3.59674 16.4963 3.33334 15.8333 3.33334ZM15.8333 5.00001L10.4166 8.72501C10.2899 8.79815 10.1462 8.83666 9.99996 8.83666C9.85368 8.83666 9.70998 8.79815 9.58329 8.72501L4.16663 5.00001H15.8333Z" fill="white"/>
</svg>
