<svg width="16" height="8" viewBox="0 0 16 8" fill="none" xmlns="http://www.w3.org/2000/svg">
<path d="M15.6834 1.58525L8.59103 7.79722C8.5066 7.87096 8.41513 7.92331 8.31662 7.95427C8.21812 7.98524 8.11258 8.00048 8 7.99999C7.88742 7.99999 7.78188 7.9845 7.68338 7.95354C7.58487 7.92257 7.4934 7.87046 7.40897 7.79722L0.295514 1.58525C0.0985044 1.41321 -3.45954e-07 1.19815 -3.59079e-07 0.94009C-3.72205e-07 0.682026 0.105541 0.460829 0.316622 0.276497C0.527704 0.0921655 0.773966 -2.9075e-08 1.05541 -3.96478e-08C1.33685 -5.02205e-08 1.58311 0.0921654 1.79419 0.276497L8 5.69584L14.2058 0.276496C14.4028 0.104454 14.6457 0.0184321 14.9345 0.0184321C15.2232 0.018432 15.4729 0.110598 15.6834 0.294929C15.8945 0.479261 16 0.694314 16 0.94009C16 1.18587 15.8945 1.40092 15.6834 1.58525Z" fill="black" fill-opacity="0.5"/>
</svg>
